<svg width="222" height="55" viewBox="0 0 222 55" fill="none" xmlns="http://www.w3.org/2000/svg">
<path d="M52.1016 33.6178V32.1178H50.6016H46.8253V3.91911V2.41911H45.3253H11.3733H9.92849L9.87435 3.8629L9.41579 16.0917C9.14987 21.7923 8.54537 25.9771 7.65234 28.7321C7.22473 30.0512 6.68897 30.8921 6.12783 31.3953C5.59741 31.871 4.9662 32.1178 4.14703 32.1178H3H1.5V33.6178V52V53.5H3H15.3879H16.8879V52V45.6301H36.7137V52V53.5H38.2137H50.6016H52.1016V52V33.6178ZM23.2324 27.4371L23.233 27.4336C23.7057 24.6324 24.0158 21.2716 24.1703 17.3635C24.1703 17.3633 24.1703 17.3631 24.1703 17.3629L24.2275 15.9314H30.5198V32.1178H22.0035C22.5293 30.7437 22.9345 29.1777 23.2324 27.4371ZM54.6107 11.5809L62.4614 17.8716H53.3693H52.1907L51.9119 19.0167C51.4988 20.713 51.2958 22.4987 51.2958 24.3693C51.2958 29.0095 52.366 33.0759 54.575 36.4991L54.5808 36.5081L54.5867 36.5169C56.8005 39.843 59.7051 42.3623 63.2816 44.0505C66.8141 45.7179 70.5893 46.5492 74.5893 46.5492C78.6659 46.5492 82.517 45.6987 86.125 43.9937C89.8131 42.269 92.8125 39.695 95.1034 36.2941C97.4367 32.8302 98.571 28.7168 98.571 24.0246C98.571 19.3325 97.4367 15.219 95.1034 11.7552L93.8593 12.5932L95.1034 11.7552C92.8091 8.34915 89.7863 5.77458 86.0581 4.05111C82.3741 2.34802 78.4305 1.5 74.2452 1.5C70.5434 1.5 66.9581 2.16583 63.4985 3.49552C60.0187 4.83296 57.0057 6.78704 54.4787 9.35904L53.3154 10.543L54.6107 11.5809ZM67.7635 17.8716C68.4917 17.2474 69.2614 16.7461 70.0721 16.3604C71.4166 15.7207 72.746 15.4144 74.0731 15.4144C75.6318 15.4144 77.0118 15.8163 78.2523 16.6128L78.2595 16.6174L78.2668 16.6219C78.8306 16.9749 79.3326 17.3901 79.7732 17.8716H67.7635ZM142.027 2.41911H140.715H127.639H126.701L126.29 3.26197L119.404 17.3922L112.766 3.28059L112.36 2.41911H111.408H97.1279H94.6096L95.809 4.6335L110.666 32.0638C110.361 32.3385 110.068 32.5332 109.79 32.6647L109.776 32.6716L109.762 32.6787C109.334 32.8931 108.737 33.0369 107.91 33.0369C107.03 33.0369 105.799 32.8441 104.176 32.4006L102.794 32.023L102.353 33.3865L99.199 43.1521L98.7707 44.4781L100.062 45.0027C102.859 46.1398 105.65 46.7216 108.426 46.7216C112.053 46.7216 115.386 45.693 118.386 43.6486C121.419 41.6083 123.922 38.6658 125.924 34.8958L142.027 4.64744V44.1301V45.6301H143.527H156.832H158.332V44.1301V3.91911V2.41911H156.832H143.527H143.213H142.027ZM177.504 45.6301H179.004V44.1301V35.7497H183.297C187.168 35.7497 190.615 35.1101 193.599 33.7818C196.589 32.4506 198.948 30.5085 200.613 27.9432C202.28 25.3741 203.092 22.4024 203.092 19.0844C203.092 15.7664 202.28 12.7947 200.613 10.2257C198.948 7.66034 196.589 5.7182 193.599 4.38698C190.615 3.05868 187.168 2.41911 183.297 2.41911H163.969H162.469V3.91911V44.1301V45.6301H163.969H177.504ZM185.551 16.7427L185.564 16.7544L185.577 16.7658C186.098 17.2225 186.442 17.9178 186.442 19.0844C186.442 20.2393 186.104 20.9695 185.564 21.4715C185.027 21.935 184.072 22.2948 182.436 22.2948H179.004V15.874H182.436C184.071 15.874 185.016 16.2518 185.551 16.7427ZM205.694 2.41911H204.194V3.91911V44.1301V45.6301H205.694H219H220.5V44.1301V3.91911V2.41911H219H205.694ZM78.7007 31.4252C77.4594 32.3172 76.1211 32.7497 74.6466 32.7497C73.1752 32.7497 71.8647 32.3192 70.6705 31.4403C70.0153 30.942 69.4621 30.3001 69.0237 29.4883H80.5123C80.0198 30.2656 79.4145 30.9062 78.7007 31.4252Z" stroke="#DFB93A" stroke-width="3"/>
</svg>
