<svg width="231" height="57" viewBox="0 0 231 57" fill="none" xmlns="http://www.w3.org/2000/svg">
<path d="M54.085 34.8675V33.3675H52.585H48.5889V3.95662V2.45662H47.0889H11.7222H10.2774L10.2232 3.90037L9.74557 16.6286C9.4685 22.5636 8.83852 26.9257 7.90575 29.8009C7.45832 31.1801 6.89561 32.0661 6.30033 32.5995C5.73571 33.1054 5.06293 33.3675 4.19482 33.3675H3H1.5V34.8675V54V55.5H3H15.9041H17.4041V54V47.3089H38.181V54V55.5H39.681H52.585H54.085V54V34.8675ZM24.0138 28.4244L24.0144 28.4209C24.5062 25.5085 24.8291 22.0131 24.99 17.9468L25.0519 16.398H31.7289V33.3675H22.7048C23.2663 31.9223 23.6979 30.2686 24.0138 28.4244ZM56.8007 11.8837L65.1142 18.5399H55.468H54.2897L54.0107 19.6847C53.5816 21.4451 53.3706 23.299 53.3706 25.2415C53.3706 30.0617 54.4832 34.2822 56.7768 37.8337L56.7826 37.8427L56.7885 37.8515C59.0884 41.3042 62.1054 43.9187 65.8205 45.6709C69.4915 47.4023 73.4147 48.2655 77.5722 48.2655C81.8091 48.2655 85.811 47.3825 89.5603 45.6123C93.3922 43.822 96.5084 41.1503 98.8889 37.6193C101.312 34.0257 102.491 29.7565 102.491 24.8828C102.491 20.009 101.312 15.7399 98.8889 12.1463C96.5052 8.61049 93.3652 5.93837 89.4922 4.14939C85.6633 2.38077 81.5646 1.5 77.2137 1.5C73.3655 1.5 69.6386 2.19157 66.0421 3.57274C62.4254 4.96167 59.2945 6.99066 56.6686 9.66107L55.5039 10.8455L56.8007 11.8837ZM81.4365 17.1263C82.0683 17.5216 82.626 17.9911 83.1104 18.5399H70.2972C71.096 17.8368 71.9437 17.2765 72.8395 16.8506C74.2478 16.1811 75.6419 15.8599 77.0345 15.8599C78.6699 15.8599 80.1194 16.2815 81.422 17.1172L81.4292 17.1218L81.4365 17.1263ZM147.777 4.66193L147.882 4.46509V45.8089V47.3089H149.382H163.242H164.742V45.8089V3.95662V2.45662H163.242H149.382H148.952H147.882H146.453H132.832H131.895L131.484 3.29905L124.253 18.1237L117.283 3.31768L116.877 2.45662H115.925H101.05H98.5306L99.7312 4.67146L115.23 33.263C114.895 33.5694 114.573 33.7856 114.267 33.9306L114.253 33.9375L114.239 33.9446C113.782 34.1732 113.149 34.3242 112.281 34.3242C111.356 34.3242 110.068 34.1219 108.375 33.6596L106.993 33.2825L106.553 34.6453L103.267 44.8094L102.838 46.136L104.13 46.6606C107.037 47.8413 109.937 48.4449 112.819 48.4449C116.584 48.4449 120.043 47.3784 123.158 45.2578C126.307 43.1411 128.908 40.0867 130.99 36.1694L147.777 4.66193ZM184.775 47.3089H186.275V45.8089V37.0252H190.809C194.835 37.0252 198.416 36.3607 201.515 34.9825C204.62 33.6014 207.067 31.5875 208.794 28.9284C210.524 26.2655 211.366 23.1842 211.366 19.7409C211.366 16.2976 210.524 13.2163 208.794 10.5534C207.067 7.89433 204.62 5.88044 201.515 4.49933C198.416 3.12116 194.835 2.45662 190.809 2.45662H170.676H169.176V3.95662V45.8089V47.3089H170.676H184.775ZM193.2 17.2589L193.213 17.2706L193.226 17.282C193.785 17.7717 194.148 18.5137 194.148 19.7409C194.148 20.9565 193.791 21.7342 193.213 22.2707C192.638 22.7671 191.626 23.1436 189.913 23.1436H186.275V16.3382H189.913C191.624 16.3382 192.627 16.7334 193.2 17.2589ZM214.14 2.45662H212.64V3.95662V45.8089V47.3089H214.14H228H229.5V45.8089V3.95662V2.45662H228H214.14ZM81.891 32.6354C80.5878 33.5708 79.1812 34.0252 77.6319 34.0252C76.0853 34.0252 74.7068 33.5726 73.452 32.6497C72.7375 32.1068 72.1394 31.4027 71.6717 30.5082H83.8535C83.326 31.366 82.6703 32.0695 81.891 32.6354Z" stroke="#DED676" stroke-width="3"/>
</svg>
