<svg width="579" height="68" viewBox="0 0 579 68" fill="none" xmlns="http://www.w3.org/2000/svg">
<path d="M50.324 16.674H34.334V57H16.238V16.674H0.248V2.4H50.324V16.674ZM81.6069 1.152C87.0149 1.152 92.0849 2.244 96.8169 4.428C101.549 6.612 105.371 9.862 108.283 14.178C111.195 18.494 112.651 23.668 112.651 29.7C112.651 35.732 111.195 40.906 108.283 45.222C105.371 49.538 101.575 52.788 96.8949 54.972C92.2669 57.156 87.3269 58.248 82.0749 58.248C76.9269 58.248 72.0909 57.182 67.5669 55.05C63.0429 52.918 59.3769 49.746 56.5689 45.534C53.8129 41.27 52.4349 36.148 52.4349 30.168C52.4349 27.776 52.6949 25.514 53.2149 23.382H92.8389C91.7989 21.042 90.2389 19.222 88.1589 17.922C86.1309 16.622 83.8689 15.972 81.3729 15.972C79.2409 15.972 77.1349 16.466 75.0549 17.454C72.9749 18.442 71.1029 19.898 69.4389 21.822L56.1789 11.214C59.4029 7.938 63.2509 5.442 67.7229 3.726C72.1949 2.01 76.8229 1.152 81.6069 1.152ZM82.1529 43.584C84.5969 43.584 86.8329 42.856 88.8609 41.4C90.9409 39.892 92.4229 37.786 93.3069 35.082H71.5449C72.2729 37.838 73.5989 39.944 75.5229 41.4C77.4989 42.856 79.7089 43.584 82.1529 43.584ZM172.008 2.4L150.09 43.506C147.49 48.394 144.292 52.112 140.496 54.66C136.752 57.208 132.618 58.482 128.094 58.482C124.61 58.482 121.074 57.754 117.486 56.298L121.776 43.038C124.064 43.662 125.936 43.974 127.392 43.974C128.744 43.974 129.888 43.74 130.824 43.272C131.812 42.804 132.748 42.024 133.632 40.932L112.728 2.4H132.15L142.992 25.41L154.224 2.4H172.008ZM221.228 43.116V57H175.832V2.4H220.214V16.284H193.928V22.68H217.016V35.94H193.928V43.116H221.228ZM281.969 2.4V57H263.873V16.674H251.393L251.237 22.992C251.029 30.792 250.405 37.188 249.365 42.18C248.325 47.172 246.505 51.072 243.905 53.88C241.305 56.636 237.587 58.014 232.751 58.014C230.307 58.014 227.707 57.676 224.951 57L225.887 42.258C226.563 42.414 227.239 42.492 227.915 42.492C229.839 42.492 231.295 41.712 232.283 40.152C233.323 38.592 234.025 36.512 234.389 33.912C234.753 31.312 235.013 27.906 235.169 23.694L235.871 2.4H281.969ZM319.069 58.248C313.297 58.248 308.097 57.052 303.469 54.66C298.841 52.216 295.201 48.836 292.549 44.52C289.949 40.152 288.649 35.212 288.649 29.7C288.649 24.188 289.949 19.274 292.549 14.958C295.201 10.59 298.841 7.21 303.469 4.818C308.097 2.374 313.297 1.152 319.069 1.152C324.373 1.152 329.105 2.088 333.265 3.96C337.425 5.832 340.857 8.536 343.561 12.072L331.939 22.446C328.559 18.182 324.581 16.05 320.005 16.05C316.157 16.05 313.063 17.298 310.723 19.794C308.383 22.238 307.213 25.54 307.213 29.7C307.213 33.86 308.383 37.188 310.723 39.684C313.063 42.128 316.157 43.35 320.005 43.35C324.581 43.35 328.559 41.218 331.939 36.954L343.561 47.328C340.857 50.864 337.425 53.568 333.265 55.44C329.105 57.312 324.373 58.248 319.069 58.248ZM349.123 2.4H367.219V57H349.123V2.4ZM413.508 28.608C416.42 29.804 418.682 31.546 420.294 33.834C421.958 36.122 422.79 38.722 422.79 41.634C422.79 45.066 421.568 48.056 419.124 50.604C416.732 53.1 413.482 55.024 409.374 56.376C405.318 57.676 400.794 58.326 395.802 58.326C387.846 58.326 380.28 56.74 373.104 53.568L378.486 40.854C381.034 41.894 383.686 42.7 386.442 43.272C389.198 43.792 391.798 44.052 394.242 44.052C397.206 44.052 399.598 43.636 401.418 42.804C403.29 41.972 404.226 40.75 404.226 39.138C404.226 36.954 402.432 35.862 398.844 35.862H384.102V22.602H397.284C398.844 22.602 400.014 22.316 400.794 21.744C401.626 21.172 402.042 20.366 402.042 19.326C402.042 17.974 401.314 16.934 399.858 16.206C398.454 15.478 396.582 15.114 394.242 15.114C392.058 15.114 389.692 15.426 387.144 16.05C384.596 16.674 382.178 17.558 379.89 18.702L374.508 5.052C380.54 2.296 387.092 0.917997 394.164 0.917997C398.896 0.917997 403.264 1.568 407.268 2.868C411.324 4.168 414.548 6.066 416.94 8.562C419.384 11.006 420.606 13.892 420.606 17.22C420.606 19.664 419.982 21.874 418.734 23.85C417.486 25.826 415.744 27.412 413.508 28.608ZM490.562 42.726V67.686H473.714V57H442.67V67.686H425.822V42.726H427.382C430.554 42.726 432.79 40.724 434.09 36.72C435.39 32.716 436.222 26.814 436.586 19.014L437.21 2.4H483.386V42.726H490.562ZM452.576 20.574C452.368 25.826 451.952 30.298 451.328 33.99C450.704 37.63 449.742 40.542 448.442 42.726H465.29V16.674H452.732L452.576 20.574ZM496.744 2.4H514.84V57H496.744V2.4ZM562.689 28.92L578.835 57H558.087L547.635 37.266H542.487V57H524.079V2.4H542.487V22.758H548.103L559.725 2.4H578.913L562.689 28.92Z" fill="white"/>
</svg>
