<svg width="121" height="34" viewBox="0 0 121 34" fill="none" xmlns="http://www.w3.org/2000/svg">
<path fill-rule="evenodd" clip-rule="evenodd" d="M38.5 12.8C41.8 13 45.8 13.5 48 11.9C50.2 10.3 50 4.4 49 2.5C47.2 -1.1 43 -1.3113e-06 40.9 1.8C38 4.3 37.9 9.9 36.8 11.3C36.5 10.8 36.5 10.1 36.5 9.4C36.5 7 37 3.9 36.8 3.2C35.2 5.6 32.3 8.5 30.4 9.9C26.3 13 22.7 7.9 22.6 13.4L24.1 13.3C24.1 13.2 24.2 13.2 24.2 13.1C24.3 12.9 24.3 12.6 24.5 12.2C30.4 12.7 28.8 13.5 35.1 8.1L35.2 11.5C34.5 11.9 33.5 12 32.7 12.3C27.7 14.2 27.7 19.4 32.1 19C35.4 18.7 36.3 15.1 36.8 13.1C37.3 14.4 36.6 19.1 41.5 18.8C41.8 18.8 42.5 18.6 42.8 18.6C43.1 18.5 43.1 18.5 43.5 18.4C43.9 18.2 43.7 18.3 44 18.1L43.7 16.9C42.6 16.6 37.8 18.8 38.5 12.8ZM38.7 11.2C40.9 -0.800001 46.9 0.899998 47.9 3.6C48.4 4.9 48.7 10 46.5 10.9C45 11.5 40.5 11.5 38.7 11.2ZM35 13.2C34.7 14.6 34.4 15.6 33.4 16.4C32.9 16.8 31 18.1 30.3 16.7C29.8 15.7 31.5 14.5 31.9 14.3C32.7 13.7 33.9 13.2 35 13.2Z" fill="white"/>
<path fill-rule="evenodd" clip-rule="evenodd" d="M116.9 8.9C117.6 7.3 118.5 5.5 119 3.8C119.8 1.3 118 1.3 116.5 2.3C115.4 3.1 114.4 4.6 113.8 6.2C112.6 9.7 113.6 10.4 113.7 11.1C112.3 12.9 110.5 15 108.1 12.7C106.7 11.3 106.3 9 105.6 6.8C104.3 10.4 103.9 11.8 101.7 14.1C100.1 13.6 99.9 12 99.4 10.6L98.2 6.4C97.7 8.7 97.8 12.2 96 13.7C95.3 11.6 96.7 9.2 97 7.1L95.6 6.6C94.8 9.3 92.9 14.2 95.7 15.4C97.2 15.3 97.4 14.4 98.3 13.2C99.4 14.4 101.3 19.1 105.3 11.8C106.6 13.8 108.5 16.7 112.1 14.7C115.1 13 114.5 11.1 116.5 10.6C121.7 9.2 114.7 17.5 116.5 22.9L117.9 22.8C117.9 18.5 117.7 19 119.3 14.7C120.8 11.1 120.8 9.2 116.9 8.9ZM114.7 9.2C114.9 6.9 115.7 4.9 117.2 3.9C116.7 5.6 115.6 8.1 114.7 9.2Z" fill="white"/>
<path fill-rule="evenodd" clip-rule="evenodd" d="M90.6 8.5C90.5 7.7 90.9 8.4 90.2 7.7C89.8 7.3 89.9 7.5 89.5 7.2C88.9 8.5 89.2 8.7 88.9 10.1C85.5 10.8 83.7 9.4 81.4 12.1C81.5 11.2 81.8 10.5 81.9 9.7C82.4 6.6 79.9 8 78.1 8.6C76.1 9.3 69.5 11.3 68 11.4C75.2 -2.38419e-06 59.4 6.5 61 12.8C63.2 12.2 61.7 11.1 63.9 9C65 8 66.6 6.7 68.3 6.7C67.8 8.8 66.3 11.8 64.9 12.4C63.4 13 60.7 13.6 59.7 14.8C58.6 17 63.8 19.2 65.9 18.8C66.7 18.6 68.4 17.6 68.9 16.8C70.2 15.1 69.6 14 69 12.9L74.7 11.2C75.7 10.9 76.6 10.6 77.5 10.3C78.4 10 79.4 9.6 80.3 9.4C79.6 12.9 78.3 14.9 81.4 16C82.8 11.6 82.9 11.9 86.9 11.8C88.1 11.8 89.6 11.6 90.2 10.7C90.5 10.2 90.7 9.1 90.6 8.5ZM61.4 15.4C61.6 15.3 68.1 11.7 68 14.8C68 16 66.2 18.1 63.1 16.7C62.5 16.3 61.7 16 61.4 15.4Z" fill="white"/>
<path fill-rule="evenodd" clip-rule="evenodd" d="M8.8 18.9C11.7 19.1 16.5 19.5 17.9 17.3C23.3 8.6 15.8 2.4 10.2 7.2C7.5 9.5 7.7 13.9 7.2 17.4C5.8 17.3 4.3 17.6 3.2 17.9L3.8 12.7L2.3 12.4C2 14.4 2.1 17.6 1.1 19.5C0.300002 21 -0.499998 24.5 1.7 25C2.9 24 2.7 21.5 3 19.8C4 19.3 5.7 18.9 7.3 19.1C7 22.1 7.3 25.8 7 29.3C7 29.8 6.9 30.4 6.8 31C6.8 31.2 6.7 31.7 6.7 31.9L6.8 32.8L8 33.1C9 28.1 8.3 23.6 8.8 18.9ZM8.8 17.3C9.1 14.7 9.2 10.8 10.9 8.8C12.3 7.2 15.8 6.3 17.5 8.7C18.6 10.3 18 14.8 16.5 16.6C15.5 17.8 10.7 17.7 8.8 17.3Z" fill="white"/>
<path fill-rule="evenodd" clip-rule="evenodd" d="M55.1 9.4C50.8 9.3 49.7 17.8 53.4 17.9C55.1 17.9 54.1 16.7 56.7 17C57 15.3 57.3 13.9 56.9 12.4C56.5 11.4 56.2 11.7 55.1 9.4ZM53.3 16.3C52.4 15.5 52.5 14.5 52.9 13.3C53.3 12 53.9 11.3 54.7 11C55.2 12 54.6 15.1 53.9 15.9C53.5 16.3 53.6 16.1 53.3 16.3Z" fill="white"/>
<path fill-rule="evenodd" clip-rule="evenodd" d="M10.9 26.8C10.9 26.8 9.9 27.7 10.3 28.5C10.7 29.2 11 29.6 11.4 29.4C11.8 29.3 12.4 28.7 12.2 28.2C12.1 27.6 11.9 26.4 10.9 26.8Z" fill="white"/>
</svg>
